<svg width="24" height="24" viewBox="0 0 24 24" fill="none" xmlns="http://www.w3.org/2000/svg">
<path d="M4.66675 22C4.21675 22 3.82642 21.8348 3.49575 21.5043C3.16525 21.1736 3 20.7833 3 20.3333V5.33325C3 4.88325 3.16525 4.493 3.49575 4.1625C3.82642 3.832 4.21675 3.66675 4.66675 3.66675H6.08325V2H7.83325V3.66675H16.1667V2H17.9167V3.66675H19.3333C19.7833 3.66675 20.1736 3.832 20.5042 4.1625C20.8347 4.493 21 4.88325 21 5.33325V20.3333C21 20.7833 20.8347 21.1736 20.5042 21.5043C20.1736 21.8348 19.7833 22 19.3333 22H4.66675ZM4.66675 20.3333H19.3333V9.83325H4.66675V20.3333ZM4.66675 8.16675H19.3333V5.33325H4.66675V8.16675ZM12 14C11.7167 14 11.4792 13.9042 11.2875 13.7125C11.0958 13.5208 11 13.2833 11 13C11 12.7167 11.0958 12.4792 11.2875 12.2875C11.4792 12.0958 11.7167 12 12 12C12.2833 12 12.5208 12.0958 12.7125 12.2875C12.9042 12.4792 13 12.7167 13 13C13 13.2833 12.9042 13.5208 12.7125 13.7125C12.5208 13.9042 12.2833 14 12 14ZM8 14C7.71667 14 7.47917 13.9042 7.2875 13.7125C7.09583 13.5208 7 13.2833 7 13C7 12.7167 7.09583 12.4792 7.2875 12.2875C7.47917 12.0958 7.71667 12 8 12C8.28333 12 8.52083 12.0958 8.7125 12.2875C8.90417 12.4792 9 12.7167 9 13C9 13.2833 8.90417 13.5208 8.7125 13.7125C8.52083 13.9042 8.28333 14 8 14ZM16 14C15.7167 14 15.4792 13.9042 15.2875 13.7125C15.0958 13.5208 15 13.2833 15 13C15 12.7167 15.0958 12.4792 15.2875 12.2875C15.4792 12.0958 15.7167 12 16 12C16.2833 12 16.5208 12.0958 16.7125 12.2875C16.9042 12.4792 17 12.7167 17 13C17 13.2833 16.9042 13.5208 16.7125 13.7125C16.5208 13.9042 16.2833 14 16 14ZM12 18C11.7167 18 11.4792 17.9042 11.2875 17.7125C11.0958 17.5208 11 17.2833 11 17C11 16.7167 11.0958 16.4792 11.2875 16.2875C11.4792 16.0958 11.7167 16 12 16C12.2833 16 12.5208 16.0958 12.7125 16.2875C12.9042 16.4792 13 16.7167 13 17C13 17.2833 12.9042 17.5208 12.7125 17.7125C12.5208 17.9042 12.2833 18 12 18ZM8 18C7.71667 18 7.47917 17.9042 7.2875 17.7125C7.09583 17.5208 7 17.2833 7 17C7 16.7167 7.09583 16.4792 7.2875 16.2875C7.47917 16.0958 7.71667 16 8 16C8.28333 16 8.52083 16.0958 8.7125 16.2875C8.90417 16.4792 9 16.7167 9 17C9 17.2833 8.90417 17.5208 8.7125 17.7125C8.52083 17.9042 8.28333 18 8 18ZM16 18C15.7167 18 15.4792 17.9042 15.2875 17.7125C15.0958 17.5208 15 17.2833 15 17C15 16.7167 15.0958 16.4792 15.2875 16.2875C15.4792 16.0958 15.7167 16 16 16C16.2833 16 16.5208 16.0958 16.7125 16.2875C16.9042 16.4792 17 16.7167 17 17C17 17.2833 16.9042 17.5208 16.7125 17.7125C16.5208 17.9042 16.2833 18 16 18Z" fill="#FF8854"/>
</svg>
