<svg width="30" height="30" viewBox="0 0 30 30" fill="none" xmlns="http://www.w3.org/2000/svg">
<path d="M25.6066 22.9334L22.3024 19.5842L23.6958 18.1718L27 21.5211L25.6066 22.9334ZM21.3073 8.40712L19.9139 6.99474L23.2181 3.64551L24.6115 5.05789L21.3073 8.40712ZM7.69273 8.40712L4.38852 5.05789L5.78192 3.64551L9.08613 6.99474L7.69273 8.40712ZM3.3934 22.9334L2 21.5211L5.30421 18.1718L6.69761 19.5842L3.3934 22.9334ZM10.121 21.7934L14.5 19.1303L18.879 21.8237L17.7146 16.7797L21.5661 13.3903L16.4905 12.9363L14.5 8.175L12.5095 12.906L7.43387 13.36L11.2854 16.7598L10.121 21.7934ZM7.12546 26L9.06613 17.4961L2.55742 11.7763L11.1561 11.0197L14.5 3L17.8439 11.0197L26.4426 11.7763L19.9339 17.4961L21.8745 26L14.5 21.4908L7.12546 26Z" fill="#FF8854"/>
</svg>
