<svg width="36" height="36" viewBox="0 0 36 36" fill="none" xmlns="http://www.w3.org/2000/svg">
<circle cx="18" cy="18" r="18" fill="black" fill-opacity="0.1"/>
<path d="M13.1171 27.0656V13.6136H8.62789V27.0656H13.1176H13.1171ZM10.8734 11.7772C12.4386 11.7772 13.413 10.7443 13.413 9.45336C13.3837 8.13304 12.4386 7.12891 10.9032 7.12891C9.36676 7.12891 8.36328 8.13304 8.36328 9.45324C8.36328 10.7442 9.33734 11.7771 10.844 11.7771H10.8731L10.8734 11.7772ZM15.602 27.0656H20.0908V19.5542C20.0908 19.1527 20.1201 18.7501 20.2387 18.4633C20.5631 17.6597 21.3017 16.8279 22.5422 16.8279C24.1661 16.8279 24.8162 18.0614 24.8162 19.8699V27.0656H29.3049V19.3526C29.3049 15.2209 27.0905 13.2982 24.1371 13.2982C21.7156 13.2982 20.6522 14.6462 20.0613 15.5643H20.0912V13.614H15.6022C15.6608 14.876 15.6018 27.0661 15.6018 27.0661L15.602 27.0656Z" fill="#393E41"/>
</svg>
