<svg width="18" height="18" viewBox="0 0 18 18" fill="none" xmlns="http://www.w3.org/2000/svg">
<g clip-path="url(#clip0_197_2372)">
<path d="M0 1.32012C0 0.611265 0.595828 0.0358887 1.33031 0.0358887H16.6697C17.4045 0.0358887 18 0.611265 18 1.32012V16.6799C18 17.3889 17.4045 17.9639 16.6697 17.9639H1.33031C0.595898 17.9639 0 17.389 0 16.6801V1.31991V1.32012Z" fill="#006699"/>
<path d="M5.46997 15.0392V6.96794H2.77644V15.0392H5.47025H5.46997ZM4.12377 5.86614C5.06286 5.86614 5.64751 5.24637 5.64751 4.47182C5.62993 3.67963 5.06286 3.07715 4.14163 3.07715C3.21976 3.07715 2.61768 3.67963 2.61768 4.47175C2.61768 5.2463 3.20211 5.86607 4.10612 5.86607H4.12356L4.12377 5.86614ZM6.96088 15.0392H9.6542V10.5323C9.6542 10.2914 9.67178 10.0499 9.74293 9.87781C9.93756 9.39565 10.3807 8.89653 11.125 8.89653C12.0994 8.89653 12.4894 9.63662 12.4894 10.7218V15.0392H15.1827V10.4114C15.1827 7.93235 13.854 6.77872 12.0819 6.77872C10.6291 6.77872 9.991 7.58751 9.63648 8.13838H9.65441V6.96822H6.96102C6.99618 7.7254 6.96081 15.0395 6.96081 15.0395L6.96088 15.0392Z" fill="white"/>
</g>
<defs>
<clipPath id="clip0_197_2372">
<rect width="18" height="18" fill="white"/>
</clipPath>
</defs>
</svg>
