<svg width="17" height="17" viewBox="0 0 17 17" fill="none" xmlns="http://www.w3.org/2000/svg">
<path d="M7.125 12.139L13.014 6.25L11.986 5.23604L7.125 10.0973L4.66667 7.63896L3.65271 8.65271L7.125 12.139ZM8.33333 16.6667C7.18986 16.6667 6.11118 16.4479 5.09729 16.0104C4.0834 15.5729 3.1991 14.9769 2.44438 14.2223C1.68979 13.4676 1.09375 12.5833 0.65625 11.5694C0.21875 10.5555 0 9.47681 0 8.33333C0 7.18056 0.21875 6.09722 0.65625 5.08333C1.09375 4.06945 1.68979 3.1875 2.44438 2.4375C3.1991 1.6875 4.0834 1.09375 5.09729 0.65625C6.11118 0.21875 7.18986 0 8.33333 0C9.48611 0 10.5694 0.21875 11.5833 0.65625C12.5972 1.09375 13.4792 1.6875 14.2292 2.4375C14.9792 3.1875 15.5729 4.06945 16.0104 5.08333C16.4479 6.09722 16.6667 7.18056 16.6667 8.33333C16.6667 9.47681 16.4479 10.5555 16.0104 11.5694C15.5729 12.5833 14.9792 13.4676 14.2292 14.2223C13.4792 14.9769 12.5972 15.5729 11.5833 16.0104C10.5694 16.4479 9.48611 16.6667 8.33333 16.6667ZM8.33333 15.2777C10.2685 15.2777 11.9097 14.6018 13.2569 13.25C14.6041 11.8982 15.2777 10.2593 15.2777 8.33333C15.2777 6.3982 14.6041 4.75701 13.2569 3.40979C11.9097 2.06257 10.2685 1.38896 8.33333 1.38896C6.40736 1.38896 4.76847 2.06257 3.41667 3.40979C2.06486 4.75701 1.38896 6.3982 1.38896 8.33333C1.38896 10.2593 2.06486 11.8982 3.41667 13.25C4.76847 14.6018 6.40736 15.2777 8.33333 15.2777Z" fill="#FF8854"/>
</svg>
