<svg width="25" height="23" viewBox="0 0 25 23" fill="none" xmlns="http://www.w3.org/2000/svg">
<path d="M2.08344 22.5C1.52094 22.5 1.03302 22.2934 0.619688 21.8803C0.206563 21.467 0 20.9791 0 20.4166V2.08344C0 1.52094 0.206563 1.03302 0.619688 0.619688C1.03302 0.206563 1.52094 0 2.08344 0H22.9166C23.4791 0 23.967 0.206563 24.3803 0.619688C24.7934 1.03302 25 1.52094 25 2.08344V20.4166C25 20.9791 24.7934 21.467 24.3803 21.8803C23.967 22.2934 23.4791 22.5 22.9166 22.5H2.08344ZM2.08344 20.4166H22.9166V2.08344H2.08344V20.4166ZM5.1875 17.375H19.8125V15.2916H5.1875V17.375ZM5.1875 12.25H10.0834V5.125H5.1875V12.25ZM13.0834 12.25H19.8125V10.1666H13.0834V12.25ZM13.0834 7.20844H19.8125V5.125H13.0834V7.20844Z" fill="#FF8854"/>
</svg>
