<svg width="25" height="25" viewBox="0 0 25 25" fill="none" xmlns="http://www.w3.org/2000/svg">
<path d="M8.8125 14.5834H15.1666V12.5H8.8125V14.5834ZM8.8125 11.4584H20.375V9.375H8.8125V11.4584ZM8.8125 8.33344H20.375V6.25H8.8125V8.33344ZM6.25 20.8334C5.6875 20.8334 5.19969 20.6268 4.78656 20.2134C4.37323 19.8003 4.16656 19.3125 4.16656 18.75V2.08344C4.16656 1.52094 4.37323 1.03302 4.78656 0.619688C5.19969 0.206563 5.6875 0 6.25 0H22.9166C23.4791 0 23.967 0.206563 24.3803 0.619688C24.7934 1.03302 25 1.52094 25 2.08344V18.75C25 19.3125 24.7934 19.8003 24.3803 20.2134C23.967 20.6268 23.4791 20.8334 22.9166 20.8334H6.25ZM6.25 18.75H22.9166V2.08344H6.25V18.75ZM2.08344 25C1.52094 25 1.03302 24.7934 0.619688 24.3803C0.206563 23.967 0 23.4791 0 22.9166V4.16656H2.08344V22.9166H20.8334V25H2.08344Z" fill="#FF8854"/>
</svg>
