<svg width="30" height="30" viewBox="0 0 30 30" fill="none" xmlns="http://www.w3.org/2000/svg">
<path d="M20.1147 28.75C19.6147 28.75 19.1355 28.651 18.6772 28.4531C18.2189 28.2552 17.8265 27.9653 17.5 27.5834L11.2916 20.1666L12.3853 19.0416C12.7326 18.6945 13.1493 18.4879 13.6353 18.4219C14.1216 18.3558 14.5903 18.4201 15.0416 18.6147L19.125 20.3853V8.95844H21.4166C22.7457 8.95844 23.8836 9.42365 24.8303 10.3541C25.7768 11.2847 26.25 12.4167 26.25 13.75V23.9584C26.25 25.2918 25.7847 26.4236 24.8541 27.3541C23.9236 28.2847 22.7918 28.75 21.4584 28.75H20.1147ZM7.08344 27.5C6.51052 27.5 6.02 27.296 5.61188 26.8881C5.20396 26.48 5 25.9895 5 25.4166V4.58344C5 4.01052 5.20396 3.52 5.61188 3.11188C6.02 2.70396 6.51052 2.5 7.08344 2.5H19.125C19.6979 2.5 20.1883 2.70396 20.5963 3.11188C21.0044 3.52 21.2084 4.01052 21.2084 4.58344V8.95844H19.125V4.58344H7.08344V25.4166H15.6772L17.4166 27.5H7.08344ZM13.1078 8.75C13.4041 8.75 13.6511 8.64979 13.8491 8.44938C14.047 8.24917 14.1459 8.00094 14.1459 7.70469C14.1459 7.40844 14.0457 7.16135 13.8453 6.96344C13.6449 6.76552 13.3967 6.66656 13.1006 6.66656C12.8044 6.66656 12.5573 6.76677 12.3594 6.96719C12.1615 7.1676 12.0625 7.41583 12.0625 7.71188C12.0625 8.00813 12.1627 8.25521 12.3631 8.45312C12.5633 8.65104 12.8116 8.75 13.1078 8.75ZM20.1353 26.6666H21.4584C22.2153 26.6666 22.8559 26.4027 23.3803 25.875C23.9045 25.3473 24.1666 24.7084 24.1666 23.9584V13.75C24.1666 12.9931 23.9045 12.3525 23.3803 11.8281C22.8559 11.3038 22.2153 11.0416 21.4584 11.0416H21.2084V23.7812L14.3959 20.5834L19 26.1459C19.139 26.3195 19.3091 26.4497 19.5103 26.5366C19.7118 26.6232 19.9201 26.6666 20.1353 26.6666Z" fill="#FF8854"/>
</svg>
