<svg width="25" height="26" viewBox="0 0 25 26" fill="none" xmlns="http://www.w3.org/2000/svg">
<path d="M2.08344 2.08344V10.6978V10.625V22.9166V2.08344ZM4.97906 14.5834H10.2916C10.507 14.1876 10.7501 13.816 11.0209 13.4688C11.2918 13.1215 11.5973 12.7985 11.9375 12.5H4.97906V14.5834ZM4.97906 19.7916H9.55219C9.47573 19.4445 9.42188 19.0973 9.39063 18.75C9.35938 18.4027 9.3576 18.0555 9.38531 17.7084H4.97906V19.7916ZM2.08344 25C1.52094 25 1.03302 24.7934 0.619688 24.3803C0.206563 23.967 0 23.4791 0 22.9166V2.08344C0 1.52094 0.206563 1.03302 0.619688 0.619688C1.03302 0.206563 1.52094 0 2.08344 0H12.9375L20 7.0625V11.3125C19.6735 11.1598 19.3368 11.033 18.9897 10.9322C18.6424 10.8316 18.2847 10.7534 17.9166 10.6978V8.04156H11.8959V2.08344H2.08344V22.9166H11.1563C11.5452 23.3749 11.9793 23.7795 12.4584 24.1303C12.9376 24.4809 13.4619 24.7708 14.0313 25H2.08344ZM16.875 21.4584C17.8194 21.4584 18.611 21.139 19.25 20.5C19.889 19.861 20.2084 19.0694 20.2084 18.125C20.2084 17.1806 19.889 16.389 19.25 15.75C18.611 15.111 17.8194 14.7916 16.875 14.7916C15.9306 14.7916 15.139 15.111 14.5 15.75C13.861 16.389 13.5416 17.1806 13.5416 18.125C13.5416 19.0694 13.861 19.861 14.5 20.5C15.139 21.139 15.9306 21.4584 16.875 21.4584ZM23.25 25.9584L19.8925 22.6041C19.4573 22.8957 18.9845 23.1249 18.4741 23.2916C17.9636 23.4582 17.4306 23.5416 16.875 23.5416C15.3704 23.5416 14.0915 23.0147 13.0381 21.9609C11.985 20.9074 11.4584 19.6279 11.4584 18.1225C11.4584 16.6173 11.9853 15.3386 13.0391 14.2866C14.0926 13.2345 15.3721 12.7084 16.8775 12.7084C18.3827 12.7084 19.6614 13.235 20.7134 14.2881C21.7655 15.3415 22.2916 16.6204 22.2916 18.125C22.2916 18.6806 22.2082 19.2136 22.0416 19.7241C21.8749 20.2345 21.6457 20.7073 21.3541 21.1425L24.7084 24.5L23.25 25.9584Z" fill="#FF8854"/>
</svg>
