<svg width="25" height="25" viewBox="0 0 25 25" fill="none" xmlns="http://www.w3.org/2000/svg">
<path d="M12.5625 19.8541C12.9306 19.8541 13.2414 19.7274 13.4947 19.4741C13.7482 19.2205 13.875 18.9097 13.875 18.5416C13.875 18.1736 13.7482 17.8629 13.4947 17.6094C13.2414 17.3558 12.9306 17.2291 12.5625 17.2291C12.1944 17.2291 11.8836 17.3558 11.6303 17.6094C11.3768 17.8629 11.25 18.1736 11.25 18.5416C11.25 18.9097 11.3768 19.2205 11.6303 19.4741C11.8836 19.7274 12.1944 19.8541 12.5625 19.8541ZM11.4584 15.2084H13.4584C13.4584 14.618 13.5296 14.1076 13.6719 13.6772C13.8142 13.2466 14.243 12.7222 14.9584 12.1041C15.5695 11.5624 16.0174 11.0364 16.3022 10.5259C16.5868 10.0155 16.7291 9.4374 16.7291 8.79156C16.7291 7.66656 16.3472 6.77771 15.5834 6.125C14.8195 5.47229 13.8472 5.14594 12.6666 5.14594C11.5903 5.14594 10.6684 5.42021 9.90094 5.96875C9.13365 6.51729 8.58333 7.23604 8.25 8.125L10.0416 8.8125C10.2291 8.29854 10.5364 7.86104 10.9634 7.5C11.3905 7.13896 11.9374 6.95844 12.6041 6.95844C13.2986 6.95844 13.8473 7.14761 14.25 7.52594C14.6527 7.90448 14.8541 8.36802 14.8541 8.91656C14.8541 9.36115 14.7222 9.77958 14.4584 10.1719C14.1945 10.5642 13.8264 10.9582 13.3541 11.3541C12.632 11.9861 12.1355 12.5486 11.8647 13.0416C11.5939 13.5347 11.4584 14.257 11.4584 15.2084ZM12.5 25C10.7848 25 9.16677 24.6719 7.64594 24.0156C6.12511 23.3594 4.79865 22.4653 3.66656 21.3334C2.53469 20.2014 1.64063 18.8749 0.984375 17.3541C0.328125 15.8332 0 14.2152 0 12.5C0 10.7708 0.328125 9.14583 0.984375 7.625C1.64063 6.10417 2.53469 4.78125 3.66656 3.65625C4.79865 2.53125 6.12511 1.64063 7.64594 0.984375C9.16677 0.328125 10.7848 0 12.5 0C14.2292 0 15.8542 0.328125 17.375 0.984375C18.8958 1.64063 20.2188 2.53125 21.3438 3.65625C22.4688 4.78125 23.3594 6.10417 24.0156 7.625C24.6719 9.14583 25 10.7708 25 12.5C25 14.2152 24.6719 15.8332 24.0156 17.3541C23.3594 18.8749 22.4688 20.2014 21.3438 21.3334C20.2188 22.4653 18.8958 23.3594 17.375 24.0156C15.8542 24.6719 14.2292 25 12.5 25ZM12.5 22.9166C15.4027 22.9166 17.8645 21.9027 19.8853 19.875C21.9061 17.8473 22.9166 15.389 22.9166 12.5C22.9166 9.59729 21.9061 7.13552 19.8853 5.11469C17.8645 3.09385 15.4027 2.08344 12.5 2.08344C9.61104 2.08344 7.15271 3.09385 5.125 5.11469C3.09729 7.13552 2.08344 9.59729 2.08344 12.5C2.08344 15.389 3.09729 17.8473 5.125 19.875C7.15271 21.9027 9.61104 22.9166 12.5 22.9166Z" fill="#FF8854"/>
</svg>
