<svg width="23" height="25" viewBox="0 0 23 25" fill="none" xmlns="http://www.w3.org/2000/svg">
<path d="M2.08344 25C1.52094 25 1.03302 24.7934 0.619688 24.3803C0.206563 23.967 0 23.4791 0 22.9166V4.16656C0 3.60406 0.206563 3.11625 0.619688 2.70313C1.03302 2.29 1.52094 2.08344 2.08344 2.08344H3.85406V0H6.04156V2.08344H16.4584V0H18.6459V2.08344H20.4166C20.9791 2.08344 21.467 2.29 21.8803 2.70313C22.2934 3.11625 22.5 3.60406 22.5 4.16656V22.9166C22.5 23.4791 22.2934 23.967 21.8803 24.3803C21.467 24.7934 20.9791 25 20.4166 25H2.08344ZM2.08344 22.9166H20.4166V9.79156H2.08344V22.9166ZM2.08344 7.70844H20.4166V4.16656H2.08344V7.70844ZM11.25 15C10.8958 15 10.599 14.8802 10.3594 14.6406C10.1198 14.401 10 14.1042 10 13.75C10 13.3958 10.1198 13.099 10.3594 12.8594C10.599 12.6198 10.8958 12.5 11.25 12.5C11.6042 12.5 11.901 12.6198 12.1406 12.8594C12.3802 13.099 12.5 13.3958 12.5 13.75C12.5 14.1042 12.3802 14.401 12.1406 14.6406C11.901 14.8802 11.6042 15 11.25 15ZM6.25 15C5.89583 15 5.59896 14.8802 5.35938 14.6406C5.11979 14.401 5 14.1042 5 13.75C5 13.3958 5.11979 13.099 5.35938 12.8594C5.59896 12.6198 5.89583 12.5 6.25 12.5C6.60417 12.5 6.90104 12.6198 7.14062 12.8594C7.38021 13.099 7.5 13.3958 7.5 13.75C7.5 14.1042 7.38021 14.401 7.14062 14.6406C6.90104 14.8802 6.60417 15 6.25 15ZM16.25 15C15.8958 15 15.599 14.8802 15.3594 14.6406C15.1198 14.401 15 14.1042 15 13.75C15 13.3958 15.1198 13.099 15.3594 12.8594C15.599 12.6198 15.8958 12.5 16.25 12.5C16.6042 12.5 16.901 12.6198 17.1406 12.8594C17.3802 13.099 17.5 13.3958 17.5 13.75C17.5 14.1042 17.3802 14.401 17.1406 14.6406C16.901 14.8802 16.6042 15 16.25 15ZM11.25 20C10.8958 20 10.599 19.8802 10.3594 19.6406C10.1198 19.401 10 19.1042 10 18.75C10 18.3958 10.1198 18.099 10.3594 17.8594C10.599 17.6198 10.8958 17.5 11.25 17.5C11.6042 17.5 11.901 17.6198 12.1406 17.8594C12.3802 18.099 12.5 18.3958 12.5 18.75C12.5 19.1042 12.3802 19.401 12.1406 19.6406C11.901 19.8802 11.6042 20 11.25 20ZM6.25 20C5.89583 20 5.59896 19.8802 5.35938 19.6406C5.11979 19.401 5 19.1042 5 18.75C5 18.3958 5.11979 18.099 5.35938 17.8594C5.59896 17.6198 5.89583 17.5 6.25 17.5C6.60417 17.5 6.90104 17.6198 7.14062 17.8594C7.38021 18.099 7.5 18.3958 7.5 18.75C7.5 19.1042 7.38021 19.401 7.14062 19.6406C6.90104 19.8802 6.60417 20 6.25 20ZM16.25 20C15.8958 20 15.599 19.8802 15.3594 19.6406C15.1198 19.401 15 19.1042 15 18.75C15 18.3958 15.1198 18.099 15.3594 17.8594C15.599 17.6198 15.8958 17.5 16.25 17.5C16.6042 17.5 16.901 17.6198 17.1406 17.8594C17.3802 18.099 17.5 18.3958 17.5 18.75C17.5 19.1042 17.3802 19.401 17.1406 19.6406C16.901 19.8802 16.6042 20 16.25 20Z" fill="#FF8854"/>
</svg>
